<?xml version='1.0' encoding='utf-8'?>
<svg xmlns="http://www.w3.org/2000/svg" version="1.1" width="600px" height="976px" viewBox="0 0 600 976"> <g id="layer1"> <g style="fill:rgb(255,192,146); fill-opacity:1.0; stroke-linejoin: miter"> <path d="M204.62775,502.2161L205.19232,503.30426Q209.07607,510.3441,209.42859,515.58185Q209.90839,520.21185,206.27779,530.1868L209.11905,556.02997L208.58539,562.91284Q218.46162,566.3485,219.83931,568.02136Q221.85962,570.03015,221.7512,570.5732Q222.28036,572.441,221.19466,574.4185Q217.29977,580.24805,211.06042,582.1773Q204.3969,584.17865,198.60356,582.4132Q185.84995,579.0063,177.24852,562.1804Q173.65654,555.50574,168.00623,541.4558L170.82294,502.96906L204.62775,502.2161"/> </g> <g style="fill:rgb(255,255,255); fill-opacity:1.0; stroke-linejoin: miter"> <path d="M205.61699,490.0169L206.0115,497.20224L206.40604,504.38757L165.53316,506.2826L166.48001,486.38477L205.61699,490.0169"/> </g> <g style="fill:rgb(0,0,0); fill-opacity:1.0; stroke-linejoin: miter"> <path d="M232.73958,9.685638L231.75516,6.4595413Q218.76936,-33.597443,221.70583,-46.702904Q223.06448,-56.385593,229.63766,-68.05447Q236.32816,-79.96354,245.2288,-87.194824Q251.01242,-91.94341,260.25076,-93.27699Q268.50598,-94.33291,283.85626,-91.43477Q311.58868,-85.52657,320.94064,-81.19548Q331.59732,-76.682205,333.45895,-69.56279Q335.65015,-65.842735,335.58502,-46.90415Q335.5882,-34.208946,331.58142,10.47113L232.73958,9.685638"/> </g> <g style="fill:rgb(0,0,0); fill-opacity:1.0; stroke-linejoin: miter"> <path d="M374.2451,911.66956Q374.44482,912.9519,375.55338,915.06055Q380.98138,924.1491,382.58905,928.2158L388.81747,949.3996Q390.5576,962.4037,391.40558,965.2102Q390.43173,968.5859,390.95062,976.4829Q390.86957,977.2357,389.05707,984.8519Q388.60684,986.5837,387.6839,988.1451L386.64282,989.6639Q385.48355,991.1401,383.85162,992.44604Q380.5877,995.05786,375.43307,996.98834L361.1671,997.7702L345.9973,995.8403Q333.55804,990.53,332.7211,989.2046Q330.43515,987.37256,325.50854,979.3995Q326.98187,964.3638,327.9782,960.55164Q327.0857,955.83203,327.22232,953.57874Q327.24542,952.2872,327.9805,947.1648Q327.416,943.46326,328.76135,932.3768L333.23938,910.9866L336.26453,903.3614 Z"/> </g> <g style="fill:rgb(0,0,0); fill-opacity:1.0; stroke-linejoin: miter"> <path d="M339.54675,936.5195L327.4667,941.9658Q326.84888,942.2521,323.6061,940.1457Q322.33246,939.7249,321.29996,940.16327Q320.33795,940.4243,316.49872,948.5201L311.01587,955.20233Q310.59427,956.0282,299.9942,962.5856Q294.1706,965.9452,276.43573,968.0741L261.6385,967.6207Q255.11176,966.77637,251.68553,964.8594Q249.94203,963.1128,249.73032,962.2026Q248.92598,959.4984,248.90538,957.31714L251.4335,943.25836Q251.84688,941.5639,252.25949,940.9466Q255.2999,937.5331,260.1718,930.03796Q265.08752,926.62897,271.3791,920.81244Q275.71082,917.1272,289.25775,902.5093Q298.78336,890.98236,299.98157,885.3916Q300.45557,884.8224,302.07886,884.4241Q308.7659,882.9282,315.57468,883.7003Q321.75537,884.76984,330.1087,887.1525Q334.4052,888.5052,336.27448,889.8122Q338.8593,892.0923,340.791,897.25793Q343.4605,914.55865,343.2149,920.7331 Z"/> </g> <g style="fill:rgb(0,0,0); fill-opacity:1.0; stroke-linejoin: miter"> <path d="M378.5966,920.2047L382.59125,904.69226Q409.31842,806.86816,419.50287,706.30994Q429.14838,619.2639,432.0943,380.6606L220.2016,382.75995Q238.46548,601.3326,248.12846,685.7101Q257.69672,774.5325,277.89514,902.35986Q319.75775,920.5504,333.92758,919.6594Q350.0768,920.41895,354.39404,903.70337Q357.06384,889.2102,352.41528,862.8849Q349.4707,844.8848,337.12616,786.69727Q333.70468,769.7712,330.82074,752.35974Q328.72897,743.60046,324.59796,700.3651Q319.3544,648.46277,327.1969,529.7175Q348.31885,652.0403,346.70834,715.5846Q347.2698,778.70374,324.05,909.70776L378.5966,920.2047"/> </g> <g style="fill:rgb(0,0,0); fill-opacity:1.0; stroke-linejoin: miter"> <path d="M254.59714,504.03137L224.5221,498.31915L217.58948,412.90222L206.1579,494.78412L160.72586,493.49017L187.23685,127.300385L241.38696,95.066025L255.73625,80.550644L333.06317,53.561874L364.88245,62.818195L440.86005,73.38577L520.9596,270.39584L472.8444,436.9817L423.55844,422.44122L466.69846,278.97662L435.63626,229.472L456.6181,463.72375L254.59714,504.03137"/> </g> <g style="fill:rgb(255,255,255); fill-opacity:1.0; stroke-linejoin: miter"> <path d="M323.73297,44.300087L254.87985,71.81152Q253.18703,150.09161,257.17102,202.93848Q260.29306,253.33951,276.198,381.5549L375.6723,382.2732Q362.68646,346.12894,352.00873,309.57407Q345.03275,285.1788,340.7923,260.2969Q336.62753,235.35742,336.2634,209.91812Q335.81555,203.36285,336.90024,172.63959Q340.56232,114.56351,340.55646,108.36854Q341.07684,102.91913,339.88556,85.42634Q338.62836,63.987816,323.73297,44.300087"/> </g> <g style="fill:rgb(0,0,0); fill-opacity:1.0; stroke-linejoin: miter"> <path d="M284.12338,101.482086L307.5484,96.12051L307.4358,117.95627L310.1051,130.60236L329.28876,360.26694L317.33707,380.1358L300.72662,360.6542L293.96518,119.89888L284.12338,101.482086"/> </g> <g style="fill:rgb(255,192,146); fill-opacity:1.0; stroke-linejoin: miter"> <path d="M297.4444,95.52173L256.049,73.92148L254.85959,59.292343Q246.90367,52.44397,244.45496,47.05432Q241.7333,42.01544,239.3484,28.006538Q235.7009,31.442871,231.58319,23.006767Q227.1036,14.261192,225.3976,3.891716Q224.58324,-6.6852036,228.76724,-7.6312447Q231.42805,-7.461975,236.06683,5.213604Q236.70987,-19.883266,237.29936,-29.39021Q237.75151,-38.193893,240.2441,-44.690468Q242.83002,-51.200832,249.50453,-51.304806L254.10118,-51.08611Q271.66837,-48.11092,273.84668,-48.545326Q275.38022,-48.33465,283.01868,-49.250748L302.0748,-52.773365Q305.9278,-53.66823,310.636,-51.635452Q312.68066,-50.7696,314.97202,-46.471355Q321.69543,-29.799437,321.93784,-27.503544Q324.18933,-19.810383,325.7702,3.3634567Q328.6989,-7.1120453,333.89722,-11.601341Q337.488,-13.342495,336.18652,-2.644371Q334.45325,10.957718,332.15125,17.364395Q329.59796,24.60804,325.62537,27.187096L321.13275,44.46785L322.66776,54.370895L297.4444,95.52173"/> </g> <g style="fill:rgb(4,2,0); fill-opacity:0.28235295; stroke-linejoin: miter"> <path d="M308.64313,94.60022Q305.11453,94.60022,299.0775,95.16163L299.15442,106.78046L301.1022,108.71151L299.1726,109.527L299.17712,110.21061L333.57404,101.61691L332.43695,101.09491Q322.3236,96.31289,316.29123,95.241875Q314.8539,94.974724,313.41788,94.82779Q312.69925,94.69558,309.1122,94.60282Q308.88348,94.60022,308.64313,94.60022 Z M288.0732,95.79444Q279.117,103.25565,275.91867,107.79865Q272.2161,112.843254,268.7497,121.32436L268.19803,122.61749L299.1726,109.527L299.15442,106.78046L288.0732,95.79444 Z"/> </g> <g style="fill:rgb(244,67,54); fill-opacity:0.12941177; stroke-linejoin: miter"> <path d="M310.52475,56.19994L308.54626,57.645317Q301.5193,62.777294,300.37857,63.30864Q297.82144,64.88701,295.4849,66.05284Q291.33148,68.29971,285.9817,69.23555Q281.70023,69.79317,275.43356,68.42081Q274.51093,68.29965,269.72412,66.648636Q266.78183,65.59769,262.78595,63.99941L291.23438,86.42288L310.52475,56.19994"/> </g> </g> </svg>